<svg xmlns="http://www.w3.org/2000/svg" viewBox="0 0 1000 520" role="img">
  <title>World map</title>
  <g fill="#e2e7ff" stroke="#b7c1ff" stroke-width="3" stroke-linejoin="round">
    <path d="M109 168l34-42 55-20 34 25 9 43-7 53-27 30-18 47-46 15-32-28-15-55z"/>
    <path d="M266 237l22-39 53-14 33 7 26 52-21 35-12 38-49 19-28-18-15-46z"/>
    <path d="M414 173l44-23 43 16 33-9 31 28 50-3 26 30-32 52-57 21-78-6-47-46z"/>
    <path d="M648 123l34-37 58-27 45 35 67-6 49 44-16 47-63 24-36 49-46 17-58-18-21-61z"/>
    <path d="M551 303l29-31 43 10 47 45-18 41-52 9-54-27z"/>
    <path d="M793 314l43-21 48 16 30 37-26 26-47-8z"/>
    <path d="M874 186l37-33 41 7 23 50-25 43-45-3-32-30z"/>
  </g>
</svg>
